<?xml version="1.0" standalone="no"?><!DOCTYPE svg PUBLIC "-//W3C//DTD SVG 1.1//EN" "http://www.w3.org/Graphics/SVG/1.1/DTD/svg11.dtd"><svg t="1742028976437" class="icon" viewBox="0 0 1024 1024" version="1.1" xmlns="http://www.w3.org/2000/svg" p-id="1123" xmlns:xlink="http://www.w3.org/1999/xlink" width="200" height="200"><path d="M966.492098 391.696084l-191.586042-132.876028V196.430042c9.100002-10.516002 13.750003-21.726005 13.780003-32.610007h0.032V57.812012h-0.03c-0.094-15.468003-9.484002-30.234006-28.610006-41.272008-42.430009-24.500005-116.540025-21.422005-165.532035 6.860001-25.180005 14.538003-38.788008 32.904007-40.342009 50.646011l-0.18 0.016V130.040028l-185.15004-106.196023c-29.240006-20.280004-69.624015-10.648002-86.560018 20.656005L56.021902 462.734099c-4.734001 8.750002-0.602 17.914004 6.530001 21.860005l-0.008 0.016 57.172013 32.788007v251.086054a84.208018 84.208018 0 0 0 42.110009 72.922016L439.983985 1002.000215a136.798029 136.798029 0 0 0 136.820029 0l278.16406-160.594034a84.200018 84.200018 0 0 0 42.102009-72.920016V459.708099l68.266014-40.156009c10.492002-6.054001 11.100002-20.960005 1.156001-27.860006z m0 0" fill="#D1D1D1" p-id="1124"></path><path d="M966.492098 391.696084l-191.586042-132.876028V196.430042c9.100002-10.516002 13.750003-21.726005 13.780003-32.610007h0.032V57.812012h-0.03c-0.094-15.468003-9.484002-30.234006-28.610006-41.272008-42.430009-24.500005-116.540025-21.422005-165.532035 6.860001-25.180005 14.538003-38.788008 32.904007-40.342009 50.646011l-0.18 0.016V130.040028l-185.15004-106.196023c-29.240006-20.280004-69.624015-10.648002-86.560018 20.656005L56.021902 462.734099c-4.734001 8.750002-0.602 17.914004 6.530001 21.860005l-0.008 0.016 57.172013 32.788007v251.086054a84.208018 84.208018 0 0 0 42.110009 72.922016l290.008062 167.438036a113.096024 113.096024 0 0 0 113.118024 0l290.014063-167.438036a84.200018 84.200018 0 0 0 42.102009-72.920016V459.708099l68.266014-40.156009c10.492002-6.054001 11.100002-20.960005 1.156001-27.860006z m0 0" fill="#D1D1D1" p-id="1125"></path><path d="M788.688059 57.812012c-0.094-15.468003-9.484002-30.234006-28.610006-41.272008-42.430009-24.500005-116.540025-21.422005-165.532035 6.860001-25.180005 14.538003-38.788008 32.904007-40.342009 50.646011l-0.18 0.016V182.400039h0.03c-0.296 15.820003 9.086002 30.970007 28.618006 42.234009 42.420009 24.500005 116.532025 21.430005 165.524036-6.860001 26.740006-15.444003 40.444009-35.200008 40.492008-53.952012h0.04V57.812012z m0 0" fill="#EBAF3C" p-id="1126"></path><path d="M508.389999 684.110147v284.694061c0 32.314007 34.978008 52.500011 62.960014 36.344008l289.994062-167.420036a71.452015 71.452015 0 0 0 35.726008-61.884013v-316.140068z m0 0" fill="#E9E9E9" p-id="1127"></path><path d="M966.492098 391.696084l-208.946045-144.922031a60.012013 60.012013 0 0 0-8.890002-5.094001L368.875969 23.844005c-29.244006-20.280004-69.626015-10.648002-86.564018 20.656005L56.023902 462.734099c-4.734001 8.750002-0.602 17.914004 6.530001 21.860005l-0.008 0.016 387.790084 222.374048c0.546 0.344 1.094 0.672 1.672 0.954l0.148 0.086 0.008-0.016c4.368001 2.062 9.680002 2.234 14.774003-0.704l498.398107-287.750062c10.492002-6.054001 11.100002-20.960005 1.156001-27.860006z m0 0" fill="#E9662C" p-id="1128"></path><path d="M670.992034 267.430057l-226.288048 418.24009c-7.744002 14.300003 8.156002 29.768006 22.234004 21.634005l498.398107-287.750062c10.492002-6.054001 11.100002-20.960005 1.156001-27.860006l-208.946045-144.912031c-29.240006-20.282004-69.624015-10.650002-86.554019 20.648004z m0 0" fill="#EBAF3C" p-id="1129"></path><path d="M637.546027 966.938208V720.790155l157.016034-90.65802v246.150053z m0 0" fill="#33AEFF" p-id="1130"></path><path d="M748.196051 112.110024c-48.992011 28.280006-123.102026 31.360007-165.532036 6.860002-42.430009-24.494005-37.100008-67.282014 11.882003-95.572021C643.540028-4.880001 717.648044-7.954002 760.080053 16.540004c42.430009 24.494005 37.110008 67.282014-11.882002 95.57202z m0 0" fill="#E9662C" p-id="1131"></path><path d="M714.368043 92.58002c-27.422006 15.826003-68.900015 17.546004-92.640019 3.834001-23.744005-13.704003-20.768004-37.656008 6.654001-53.484012 27.414006-15.828003 68.892015-17.548004 92.63402-3.836001 23.740005 13.702003 20.766004 37.648008-6.648002 53.484012z m0 0" fill="#AF4D21" p-id="1132"></path></svg>